<?xml version="1.0" standalone="no"?><svg xmlns="http://www.w3.org/2000/svg" viewBox="0 0 1440 320"><path fill="#99e0f1" fill-opacity="0.5" d="M0,256L21.8,250.7C43.6,245,87,235,131,213.3C174.5,192,218,160,262,160C305.5,160,349,192,393,186.7C436.4,181,480,139,524,122.7C567.3,107,611,117,655,144C698.2,171,742,213,785,192C829.1,171,873,85,916,69.3C960,53,1004,107,1047,117.3C1090.9,128,1135,96,1178,117.3C1221.8,139,1265,213,1309,240C1352.7,267,1396,245,1418,234.7L1440,224L1440,320L1418.2,320C1396.4,320,1353,320,1309,320C1265.5,320,1222,320,1178,320C1134.5,320,1091,320,1047,320C1003.6,320,960,320,916,320C872.7,320,829,320,785,320C741.8,320,698,320,655,320C610.9,320,567,320,524,320C480,320,436,320,393,320C349.1,320,305,320,262,320C218.2,320,175,320,131,320C87.3,320,44,320,22,320L0,320Z"></path></svg>